<svg width="18" height="18" viewBox="0 0 18 18" fill="none" xmlns="http://www.w3.org/2000/svg">
<g clip-path="url(#clip0_58_76)">
<path d="M8.25 13.125C8.25094 12.1698 8.53246 11.236 9.0596 10.4394C9.58674 9.64287 10.3363 9.01873 11.2151 8.64451C12.0939 8.27029 13.0633 8.16249 14.0028 8.33449C14.9424 8.50649 15.8107 8.95072 16.5 9.61199V2.24999C16.5 1.65326 16.2629 1.08096 15.841 0.659002C15.419 0.237045 14.8467 -7.62939e-06 14.25 -7.62939e-06L5.25 -7.62939e-06C4.2558 0.00118326 3.30267 0.396654 2.59966 1.09966C1.89666 1.80266 1.50119 2.7558 1.5 3.74999V14.25C1.50119 15.2442 1.89666 16.1973 2.59966 16.9003C3.30267 17.6033 4.2558 17.9988 5.25 18H13.125C11.8321 18 10.5921 17.4864 9.67785 16.5721C8.76361 15.6579 8.25 14.4179 8.25 13.125ZM5.25 5.24999C5.25 5.05108 5.32902 4.86031 5.46967 4.71966C5.61032 4.57901 5.80109 4.49999 6 4.49999H12C12.1989 4.49999 12.3897 4.57901 12.5303 4.71966C12.671 4.86031 12.75 5.05108 12.75 5.24999C12.75 5.4489 12.671 5.63967 12.5303 5.78032C12.3897 5.92097 12.1989 5.99999 12 5.99999H6C5.80109 5.99999 5.61032 5.92097 5.46967 5.78032C5.32902 5.63967 5.25 5.4489 5.25 5.24999ZM17.7803 17.7802C17.6396 17.9208 17.4489 17.9998 17.25 17.9998C17.0511 17.9998 16.8604 17.9208 16.7197 17.7802L14.9145 15.975C14.3799 16.3162 13.7592 16.4983 13.125 16.5C12.4575 16.5 11.805 16.3021 11.25 15.9312C10.6949 15.5604 10.2624 15.0332 10.0069 14.4165C9.75146 13.7998 9.68462 13.1212 9.81485 12.4666C9.94507 11.8119 10.2665 11.2105 10.7385 10.7385C11.2105 10.2665 11.8119 9.94507 12.4666 9.81484C13.1213 9.68462 13.7999 9.75145 14.4166 10.0069C15.0333 10.2623 15.5604 10.6949 15.9312 11.2499C16.3021 11.805 16.5 12.4575 16.5 13.125C16.4983 13.7592 16.3162 14.3799 15.975 14.9145L17.7803 16.7197C17.9209 16.8604 17.9998 17.0511 17.9998 17.25C17.9998 17.4489 17.9209 17.6396 17.7803 17.7802Z" fill="#374957"/>
</g>
<defs>
<clipPath id="clip0_58_76">
<rect width="18" height="18" fill="white"/>
</clipPath>
</defs>
</svg>
