<svg width="18" height="18" viewBox="0 0 18 18" fill="none" xmlns="http://www.w3.org/2000/svg">
<g clip-path="url(#clip0_58_72)">
<path d="M9 0C7.21997 0 5.47991 0.527841 3.99987 1.51677C2.51983 2.50571 1.36628 3.91131 0.685088 5.55585C0.00389957 7.20038 -0.17433 9.00998 0.172937 10.7558C0.520204 12.5016 1.37737 14.1053 2.63604 15.364C3.89472 16.6226 5.49836 17.4798 7.24419 17.8271C8.99002 18.1743 10.7996 17.9961 12.4442 17.3149C14.0887 16.6337 15.4943 15.4802 16.4832 14.0001C17.4722 12.5201 18 10.78 18 9C17.9974 6.61384 17.0484 4.32616 15.3611 2.63889C13.6738 0.951621 11.3862 0.00258081 9 0V0ZM9.75 8.90925C9.75008 9.03638 9.71784 9.16145 9.65631 9.27271C9.59478 9.38396 9.50598 9.47774 9.39825 9.54525L6.51825 11.3453C6.43454 11.3975 6.34134 11.4328 6.24398 11.4491C6.14662 11.4654 6.04701 11.4624 5.95083 11.4401C5.85465 11.4179 5.76379 11.377 5.68343 11.3196C5.60308 11.2623 5.5348 11.1897 5.4825 11.106C5.4302 11.0223 5.39491 10.9291 5.37863 10.8317C5.36235 10.7344 5.3654 10.6348 5.38762 10.5386C5.40983 10.4424 5.45078 10.3515 5.50811 10.2712C5.56544 10.1908 5.63804 10.1226 5.72175 10.0703L8.25 8.49375V5.25C8.25 5.05109 8.32902 4.86032 8.46967 4.71967C8.61033 4.57902 8.80109 4.5 9 4.5C9.19892 4.5 9.38968 4.57902 9.53033 4.71967C9.67099 4.86032 9.75 5.05109 9.75 5.25V8.90925Z" fill="#374957"/>
</g>
<defs>
<clipPath id="clip0_58_72">
<rect width="18" height="18" fill="white"/>
</clipPath>
</defs>
</svg>
