<svg width="18" height="18" viewBox="0 0 18 18" fill="none" xmlns="http://www.w3.org/2000/svg">
<g clip-path="url(#clip0_58_84)">
<path d="M18 5.99971V14.9997H16.5V6.96721L10.59 10.7787C10.1167 11.0861 9.56439 11.2498 9 11.2498C8.43561 11.2498 7.88332 11.0861 7.41 10.7787L0 5.99971L7.41 1.21996C7.88359 0.913251 8.43577 0.750061 9 0.750061C9.56423 0.750061 10.1164 0.913251 10.59 1.21996L18 5.99971ZM9 12.7497C8.14828 12.7491 7.31487 12.5025 6.6 12.0395L3 9.71971V15.3102L3.21975 15.53C3.29025 15.5997 4.98525 17.2497 9 17.2497C13.0148 17.2497 14.7098 15.5997 14.7803 15.53L15 15.3102V9.71971L11.4 12.0395C10.6851 12.5025 9.85172 12.7491 9 12.7497Z" fill="#374957"/>
</g>
<defs>
<clipPath id="clip0_58_84">
<rect width="18" height="18" fill="white"/>
</clipPath>
</defs>
</svg>
